<?xml version="1.0" standalone="no"?>
<!DOCTYPE svg PUBLIC "-//W3C//DTD SVG 20010904//EN"
 "http://www.w3.org/TR/2001/REC-SVG-20010904/DTD/svg10.dtd">
<svg version="1.0" xmlns="http://www.w3.org/2000/svg"
 width="500.000000pt" height="500.000000pt" viewBox="0 0 500.000000 500.000000"
 preserveAspectRatio="xMidYMid meet">
<metadata>
Created by potrace 1.14, written by Peter Selinger 2001-2017
</metadata>
<g transform="translate(0.000000,500.000000) scale(0.100000,-0.100000)"
fill="#000000" stroke="none">
<path d="M2959 4467 c-46 -35 -51 -97 -11 -136 22 -22 42 -29 110 -39 46 -6
90 -15 98 -20 11 -6 -28 -41 -158 -139 -95 -72 -252 -190 -348 -263 -416 -316
-708 -537 -890 -674 -107 -81 -202 -152 -210 -159 -8 -7 -134 -103 -280 -213
-592 -447 -545 -407 -544 -465 2 -58 60 -101 114 -84 19 6 163 113 565 418 77
59 151 115 165 126 14 10 142 108 285 216 143 107 267 201 275 208 8 7 116 88
240 182 260 196 491 371 505 382 6 5 75 57 155 117 80 60 174 132 209 159 l63
50 -5 -44 c-27 -209 -20 -235 66 -263 23 -7 73 18 86 43 11 20 16 46 26 136 3
33 8 78 10 100 3 22 7 63 10 90 3 28 8 69 11 93 11 79 -18 115 -104 132 -26 5
-58 12 -71 14 -14 3 -59 10 -100 16 -42 6 -94 15 -116 20 -56 13 -137 12 -156
-3z"/>
<path d="M3700 3862 c-1 -42 -1 -2665 -1 -2772 l1 -95 203 0 c111 -1 204 2
207 7 3 4 6 654 5 1445 l0 1438 -207 2 -208 3 0 -28z"/>
<path d="M2759 3113 c-4 -29 -3 -2106 1 -2112 7 -9 404 -9 410 0 3 4 5 481 5
1061 l-1 1053 -207 3 c-114 1 -207 -1 -208 -5z"/>
<path d="M1821 2370 c-4 -3 -7 -313 -6 -690 l0 -685 208 0 c179 0 207 2 207
15 1 8 2 318 3 687 1 443 -1 673 -8 674 -33 4 -398 3 -404 -1z"/>
<path d="M872 1382 l-1 -387 210 0 209 0 0 387 0 387 -209 0 -209 -1 0 -386z"/>
<path d="M490 693 l0 -193 2005 0 2005 0 0 193 0 192 -2005 0 -2005 0 0 -192z"/>
</g>
</svg>
